<svg width="45" height="49" viewBox="0 0 45 49" fill="none" xmlns="http://www.w3.org/2000/svg">
<path d="M39.1887 23.5127C39.1951 26.1872 38.6248 28.8255 37.5244 31.2128C36.2196 34.0734 34.2137 36.4796 31.7314 38.1617C29.2491 39.8437 26.3884 40.7353 23.4698 40.7366C21.029 40.7436 18.6212 40.1187 16.4425 38.9129L5.90161 42.7629L9.41525 31.2128C8.3148 28.8255 7.74453 26.1872 7.75089 23.5127C7.75202 20.3146 8.56571 17.18 10.1008 14.4601C11.6359 11.7401 13.8318 9.54218 16.4425 8.11246C18.6212 6.90665 21.029 6.28178 23.4698 6.28875H24.3944C28.249 6.52177 31.8897 8.30448 34.6194 11.2956C37.3491 14.2866 38.9761 18.2759 39.1887 22.4995V23.5127Z" stroke="#A885F2" stroke-width="4" stroke-linecap="round" stroke-linejoin="round"/>
</svg>
