<svg width="46" height="49" viewBox="0 0 46 49" fill="none" xmlns="http://www.w3.org/2000/svg">
<path d="M39.4837 9.55114C38.5391 8.51569 37.4177 7.6943 36.1833 7.13389C34.949 6.57348 33.626 6.28503 32.2899 6.28503C30.9539 6.28503 29.6309 6.57348 28.3965 7.13389C27.1622 7.6943 26.0408 8.51569 25.0962 9.55114L23.136 11.6991L21.1757 9.55114C19.2679 7.46058 16.6802 6.28612 13.982 6.28612C11.2839 6.28612 8.69622 7.46058 6.78833 9.55114C4.88044 11.6417 3.80859 14.4771 3.80859 17.4336C3.80859 20.3901 4.88044 23.2255 6.78833 25.3161L23.136 43.229L39.4837 25.3161C40.4286 24.2811 41.1782 23.0523 41.6897 21.6998C42.2011 20.3473 42.4644 18.8976 42.4644 17.4336C42.4644 15.9696 42.2011 14.5199 41.6897 13.1674C41.1782 11.8149 40.4286 10.5861 39.4837 9.55114Z" stroke="#A885F2" stroke-width="4" stroke-linecap="round" stroke-linejoin="round"/>
</svg>
