<svg width="46" height="50" viewBox="0 0 46 50" fill="none" xmlns="http://www.w3.org/2000/svg">
<path d="M34.0622 45.3577C32.5212 45.3577 31.2113 44.7666 30.1325 43.5846C29.0538 42.4026 28.5144 40.9673 28.5144 39.2786C28.5144 39.0422 28.5298 38.7974 28.5606 38.5441C28.5915 38.2908 28.6377 38.0628 28.6993 37.8602L15.6619 29.5522C15.1379 30.0588 14.5523 30.4556 13.9051 30.7427C13.2578 31.0297 12.5797 31.1733 11.8708 31.1733C10.3298 31.1733 9.01987 30.5822 7.94112 29.4002C6.86237 28.2182 6.323 26.7829 6.323 25.0942C6.323 23.4056 6.86237 21.9703 7.94112 20.7883C9.01987 19.6062 10.3298 19.0152 11.8708 19.0152C12.5797 19.0152 13.2578 19.1587 13.9051 19.4458C14.5523 19.7329 15.1379 20.1297 15.6619 20.6363L28.6993 12.3283C28.6377 12.1256 28.5915 11.8977 28.5606 11.6444C28.5298 11.3911 28.5144 11.1462 28.5144 10.9098C28.5144 9.22122 29.0538 7.78589 30.1325 6.60386C31.2113 5.42183 32.5212 4.83081 34.0622 4.83081C35.6033 4.83081 36.9132 5.42183 37.992 6.60386C39.0707 7.78589 39.6101 9.22122 39.6101 10.9098C39.6101 12.5985 39.0707 14.0338 37.992 15.2158C36.9132 16.3978 35.6033 16.9889 34.0622 16.9889C33.3534 16.9889 32.6753 16.8453 32.028 16.5583C31.3808 16.2712 30.7952 15.8744 30.2712 15.3678L17.2338 23.6758C17.2954 23.8784 17.3416 24.1064 17.3725 24.3597C17.4033 24.613 17.4187 24.8578 17.4187 25.0942C17.4187 25.3306 17.4033 25.5755 17.3725 25.8288C17.3416 26.0821 17.2954 26.31 17.2338 26.5127L30.2712 34.8207C30.7952 34.3141 31.3808 33.9173 32.028 33.6302C32.6753 33.3431 33.3534 33.1996 34.0622 33.1996C35.6033 33.1996 36.9132 33.7906 37.992 34.9727C39.0707 36.1547 39.6101 37.59 39.6101 39.2786C39.6101 40.9673 39.0707 42.4026 37.992 43.5846C36.9132 44.7666 35.6033 45.3577 34.0622 45.3577ZM34.0622 12.9362C34.5862 12.9362 35.0254 12.742 35.3799 12.3536C35.7343 11.9652 35.9115 11.484 35.9115 10.9098C35.9115 10.3357 35.7343 9.85445 35.3799 9.46607C35.0254 9.07769 34.5862 8.8835 34.0622 8.8835C33.5383 8.8835 33.0991 9.07769 32.7446 9.46607C32.3902 9.85445 32.213 10.3357 32.213 10.9098C32.213 11.484 32.3902 11.9652 32.7446 12.3536C33.0991 12.742 33.5383 12.9362 34.0622 12.9362ZM11.8708 27.1206C12.3948 27.1206 12.834 26.9264 13.1885 26.538C13.5429 26.1496 13.7201 25.6684 13.7201 25.0942C13.7201 24.5201 13.5429 24.0388 13.1885 23.6505C12.834 23.2621 12.3948 23.0679 11.8708 23.0679C11.3469 23.0679 10.9077 23.2621 10.5532 23.6505C10.1988 24.0388 10.0216 24.5201 10.0216 25.0942C10.0216 25.6684 10.1988 26.1496 10.5532 26.538C10.9077 26.9264 11.3469 27.1206 11.8708 27.1206ZM34.0622 41.305C34.5862 41.305 35.0254 41.1108 35.3799 40.7224C35.7343 40.334 35.9115 39.8528 35.9115 39.2786C35.9115 38.7045 35.7343 38.2232 35.3799 37.8349C35.0254 37.4465 34.5862 37.2523 34.0622 37.2523C33.5383 37.2523 33.0991 37.4465 32.7446 37.8349C32.3902 38.2232 32.213 38.7045 32.213 39.2786C32.213 39.8528 32.3902 40.334 32.7446 40.7224C33.0991 41.1108 33.5383 41.305 34.0622 41.305Z" fill="#A885F2"/>
</svg>
